<svg xmlns="http://www.w3.org/2000/svg" viewBox="0 0 241.16 334.72"><defs><style>.cls-1{fill:#e76f51;}.cls-2,.cls-5{fill:none;}.cls-2{stroke:#9b9b9b;}.cls-2,.cls-4,.cls-5,.cls-9{stroke-miterlimit:10;}.cls-2,.cls-4,.cls-9{stroke-width:3px;}.cls-3{fill:#f4b147;}.cls-4{fill:#e9d8a6;stroke:#dd8a05;}.cls-5{stroke:#afafaf;stroke-width:2px;}.cls-6{fill:#c64265;}.cls-7{fill:#b74030;}.cls-8{fill:#d35362;}.cls-9{fill:#94d2bd;stroke:#74c69d;}.cls-10{fill:#74c69d;}.cls-11{fill:#ffdbab;}.cls-12{fill:#d1ede3;}</style></defs><title>somestone-card</title><g id="main_border" data-name="main border"><rect class="cls-1" x="9.71" y="9.07" width="231.46" height="325.66" rx="12" ry="12"/><path class="cls-2" d="M37,58.54" transform="translate(-2.56 -11.25)"/><path class="cls-2" d="M37,165.8" transform="translate(-2.56 -11.25)"/><path class="cls-2" d="M219,58.54" transform="translate(-2.56 -11.25)"/><path class="cls-2" d="M219,165.8" transform="translate(-2.56 -11.25)"/></g><g id="top_border" data-name="top border"><path class="cls-3" d="M223.1,177.57a15.78,15.78,0,0,0,8.64-14.06V62.82a15.79,15.79,0,0,0-9.81-14.6c-26-10.64-58.58-17-93.93-17s-67.93,6.33-93.93,17a15.79,15.79,0,0,0-9.81,14.6V163.51a15.78,15.78,0,0,0,8.64,14.06" transform="translate(-2.56 -11.25)"/><path class="cls-4" d="M204.29,170.89a75,75,0,0,0,7.92-3,10.79,10.79,0,0,0,6.79-9.94V68.42a10.79,10.79,0,0,0-6.79-9.94C189.11,49,159.84,43.25,128,43.25S66.89,49,43.79,58.48A10.79,10.79,0,0,0,37,68.42v89.49a10.79,10.79,0,0,0,6.79,9.94q3.85,1.59,7.92,3S128.24,192.6,204.29,170.89Z" transform="translate(-2.56 -11.25)"/></g><g id="bottom_border" data-name="bottom border"><path class="cls-3" d="M137.88,207.14c-1.63-4.74-5.44-8.14-9.88-8.14s-8.3,3.36-9.91,8.14c-31.52,1.18-60.47,8-84,18.69-5.95,2.71-9.81,9.13-9.81,16.22V323c0,6.08,4.47,11,10,11h187.5c5.52,0,10-4.92,10-11V242.05c0-7.09-3.86-13.51-9.81-16.22-23.56-10.72-52.51-17.51-84.05-18.69Z" transform="translate(-2.56 -11.25)"/><path class="cls-4" d="M118.74,218.88c1.84,4,5.25,6.53,9.26,6.53s7.39-2.62,9.26-6.53h0c28.25,1.14,54.12,7.45,75,17.35A12.51,12.51,0,0,1,219,247.65v65.84c0,4.28-3.13,7.76-7,7.76H44c-3.87,0-7-3.48-7-7.76V247.65a12.51,12.51,0,0,1,6.78-11.42C64.62,226.33,90.49,220,118.74,218.88Z" transform="translate(-2.56 -11.25)"/></g><g id="middle_banner" data-name="middle banner"><path class="cls-5" d="M128,208.83" transform="translate(-2.56 -11.25)"/><path class="cls-5" d="M128,239" transform="translate(-2.56 -11.25)"/><path class="cls-6" d="M25.47,201l19.66,1.74,1.17,8.88A3.83,3.83,0,0,1,44,215.56L21.8,224.9a2.08,2.08,0,0,1-2.8-2.48c2.24-8.12.85-12.83-.31-15a2.07,2.07,0,0,1,.77-2.72Z" transform="translate(-2.56 -11.25)"/><path class="cls-7" d="M25.54,215.45s-.05,4.3,9.79-3c0,0,8-6.9,11,.05l-2.07-21.25S27.7,205.4,25.54,215.45Z" transform="translate(-2.56 -11.25)"/><path class="cls-6" d="M230.55,201l-19.65,1.74-1.17,8.88a3.83,3.83,0,0,0,2.32,3.94l22.18,9.34a2.08,2.08,0,0,0,2.8-2.48c-2.24-8.12-.85-12.83.31-15a2.07,2.07,0,0,0-.77-2.72Z" transform="translate(-2.56 -11.25)"/><path class="cls-7" d="M230.49,215.45s0,4.3-9.8-3c0,0-8-6.9-11,.05l2.07-21.25S228.33,205.4,230.49,215.45Z" transform="translate(-2.56 -11.25)"/><path class="cls-5" d="M46.6,214.45" transform="translate(-2.56 -11.25)"/><path class="cls-5" d="M35.33,214.54" transform="translate(-2.56 -11.25)"/><path class="cls-8" d="M230.53,216.22c0-12.56-46.91-23.89-103.53-23.89S25.47,203.66,25.47,216.22V186.08c0-12.56,45.91-22.75,102.53-22.75s102.53,10.19,102.53,22.75Z" transform="translate(-2.56 -11.25)"/></g><g id="corner_stat" data-name="corner stat"><path class="cls-9" d="M44.42,12.75H25.52a12,12,0,0,0-10.4,6L5.67,35.12a12,12,0,0,0,0,12l9.45,16.37a12,12,0,0,0,10.4,6h18.9a12,12,0,0,0,10.39-6l9.46-16.37a12,12,0,0,0,0-12L54.81,18.75A12,12,0,0,0,44.42,12.75Z" transform="translate(-2.56 -11.25)"/></g><g id="pearl"><ellipse class="cls-10" cx="125.44" cy="200.28" rx="6.86" ry="9.09"/></g><g id="highlights"><path class="cls-11" d="M220.52,233c2.09,1.87,3.89,4.66,4,7.52.08,2.41,3.83,2.42,3.75,0a15,15,0,0,0-5.09-10.17c-1.79-1.61-4.45,1-2.65,2.65Z" transform="translate(-2.56 -11.25)"/><path class="cls-12" d="M128.21,206.61c2.46,1.38,2.81,4.51,2,7-.52,1.52,1.89,2.17,2.41.66,1.2-3.5.35-7.88-3.11-9.82a1.25,1.25,0,0,0-1.26,2.16Z" transform="translate(-2.56 -11.25)"/><path class="cls-11" d="M220.63,55.69c-.36-.26.1.08.35.31a12,12,0,0,1,1.27,1.3A7.71,7.71,0,0,1,224.13,62c.07,2.41,3.82,2.42,3.75,0a12.39,12.39,0,0,0-5.35-9.49c-2-1.41-3.84,1.84-1.9,3.23Z" transform="translate(-2.56 -11.25)"/><path class="cls-12" d="M40.55,21.1c5.85-1.66,8.5,5,10.8,9,1.19,2.1,4.43.21,3.24-1.89-1.65-2.88-3.12-6.43-5.68-8.63a10.43,10.43,0,0,0-9.36-2.13c-2.31.66-1.33,4.28,1,3.61Z" transform="translate(-2.56 -11.25)"/></g></svg>